<svg xmlns="http://www.w3.org/2000/svg"  viewBox="0 0 100 100" width="100px" height="100px"><path fill="#c7ede6" d="M88.448,56.672c0.3-0.616,0.566-1.264,0.796-1.943c2.633-7.77-1.349-17.078-9.733-19.325c-0.906-11.384-8.906-19.193-17.941-20.526c-10.341-1.525-19.814,5.044-22.966,15.485c-3.799-1.346-7.501-1.182-10.99,0.857c-1.583,0.732-3.031,1.812-4.33,3.233c-1.907,2.086-3.147,4.719-3.652,7.495c-0.748,0.118-1.483,0.236-2.176,0.484c-4.04,1.449-6.589,4.431-7.288,8.923c-0.435,2.797,0.443,5.587,0.933,6.714c1.935,4.455,6.422,6.98,10.981,6.312c0.227-0.033,0.557,0.069,0.752,0.233c0.241,7.12,3.698,13.417,8.884,17.014c8.321,5.772,19.027,3.994,25.781-3.921c2.894,2.96,6.338,4.398,10.384,3.876c4.023-0.519,7.147-2.739,9.426-6.349c1.053,0.283,2.051,0.691,3.083,0.804c4.042,0.442,7.324-1.165,9.732-4.8c0.922-1.391,1.793-3.194,1.793-6.354C91.918,61.629,90.625,58.662,88.448,56.672z"/><path fill="#fff" d="M18.113 48.708H8.082c-.276 0-.5-.224-.5-.5s.224-.5.5-.5h10.031c.276 0 .5.224.5.5S18.389 48.708 18.113 48.708zM20.994 48.708h-1.446c-.276 0-.5-.224-.5-.5s.224-.5.5-.5h1.446c.276 0 .5.224.5.5S21.27 48.708 20.994 48.708zM25.048 48.708h-2.546c-.276 0-.5-.224-.5-.5s.224-.5.5-.5h2.546c.276 0 .5.224.5.5S25.325 48.708 25.048 48.708zM25.048 50.573h-9.616c-.276 0-.5-.224-.5-.5s.224-.5.5-.5h9.616c.276 0 .5.224.5.5S25.325 50.573 25.048 50.573zM13.7 50.573h-.58c-.276 0-.5-.224-.5-.5s.224-.5.5-.5h.58c.276 0 .5.224.5.5S13.977 50.573 13.7 50.573zM11.324 50.573H9.867c-.276 0-.5-.224-.5-.5s.224-.5.5-.5h1.457c.276 0 .5.224.5.5S11.6 50.573 11.324 50.573zM20.459 46.843h-5.027c-.276 0-.5-.224-.5-.5s.224-.5.5-.5h5.027c.276 0 .5.224.5.5S20.736 46.843 20.459 46.843zM20.459 44.978h-1.257c-.276 0-.5-.224-.5-.5s.224-.5.5-.5h1.257c.276 0 .5.224.5.5S20.736 44.978 20.459 44.978zM17.19 52.438h-1.758c-.276 0-.5-.224-.5-.5s.224-.5.5-.5h1.758c.276 0 .5.224.5.5S17.467 52.438 17.19 52.438zM74.139 26.387H64.108c-.276 0-.5-.224-.5-.5s.224-.5.5-.5h10.031c.276 0 .5.224.5.5S74.415 26.387 74.139 26.387zM77.02 26.387h-1.446c-.276 0-.5-.224-.5-.5s.224-.5.5-.5h1.446c.276 0 .5.224.5.5S77.296 26.387 77.02 26.387zM81.074 26.387h-2.546c-.276 0-.5-.224-.5-.5s.224-.5.5-.5h2.546c.276 0 .5.224.5.5S81.351 26.387 81.074 26.387zM81.074 28.252h-9.616c-.276 0-.5-.224-.5-.5s.224-.5.5-.5h9.616c.276 0 .5.224.5.5S81.351 28.252 81.074 28.252zM69.726 28.252h-.58c-.276 0-.5-.224-.5-.5s.224-.5.5-.5h.58c.276 0 .5.224.5.5S70.002 28.252 69.726 28.252zM67.35 28.252h-1.457c-.276 0-.5-.224-.5-.5s.224-.5.5-.5h1.457c.276 0 .5.224.5.5S67.626 28.252 67.35 28.252zM76.485 24.523h-5.027c-.276 0-.5-.224-.5-.5s.224-.5.5-.5h5.027c.276 0 .5.224.5.5S76.762 24.523 76.485 24.523zM76.485 22.658h-1.257c-.276 0-.5-.224-.5-.5s.224-.5.5-.5h1.257c.276 0 .5.224.5.5S76.762 22.658 76.485 22.658zM73.217 30.117h-1.759c-.276 0-.5-.224-.5-.5s.224-.5.5-.5h1.759c.276 0 .5.224.5.5S73.493 30.117 73.217 30.117z"/><path fill="#fdfcef" d="M39.636,73.482c1.71,0,3.194,0,3.215,0c1.916,0,3.469-1.52,3.469-3.396c0-1.636-1.182-3.001-2.756-3.323c0.018-0.143,0.031-0.288,0.031-0.436c0-1.942-1.609-3.517-3.593-3.517c-1.172,0-2.209,0.551-2.865,1.401c-0.168-2.162-2.141-3.83-4.45-3.554c-1.688,0.202-3.084,1.479-3.395,3.116c-0.1,0.525-0.089,1.034,0.01,1.512c-0.453-0.477-1.097-0.777-1.814-0.777c-1.313,0-2.385,1.001-2.47,2.265c-0.596-0.129-1.245-0.121-1.928,0.13c-1.306,0.48-2.236,1.683-2.29,3.047c-0.077,1.937,1.504,3.532,3.467,3.532c0.149,0,0.673,0,0.794,0h7.204 M33.754,73.482h0.327"/><path fill="#472b29" d="M42.851,73.982h-3.215c-0.276,0-0.5-0.224-0.5-0.5s0.224-0.5,0.5-0.5h3.215c1.637,0,2.969-1.299,2.969-2.896c0-1.362-0.991-2.554-2.356-2.832c-0.256-0.053-0.429-0.293-0.396-0.553c0.016-0.123,0.027-0.248,0.027-0.374c0-1.663-1.388-3.017-3.093-3.017c-0.978,0-1.877,0.439-2.47,1.206c-0.126,0.164-0.34,0.231-0.539,0.174c-0.198-0.06-0.339-0.234-0.355-0.44c-0.071-0.913-0.506-1.741-1.227-2.332c-0.743-0.61-1.688-0.88-2.665-0.765c-1.475,0.177-2.694,1.293-2.963,2.713c-0.084,0.443-0.081,0.887,0.008,1.316c0.046,0.219-0.059,0.441-0.257,0.546c-0.197,0.103-0.44,0.062-0.594-0.099c-0.381-0.401-0.896-0.622-1.452-0.622c-1.038,0-1.903,0.79-1.971,1.799c-0.01,0.146-0.082,0.279-0.199,0.366c-0.116,0.089-0.265,0.121-0.407,0.089c-0.568-0.123-1.108-0.087-1.649,0.111c-1.129,0.414-1.917,1.458-1.963,2.597c-0.031,0.782,0.252,1.526,0.799,2.096c0.568,0.591,1.337,0.916,2.167,0.916h7.998c0.276,0,0.5,0.224,0.5,0.5s-0.224,0.5-0.5,0.5h-7.998c-1.089,0-2.142-0.446-2.889-1.224c-0.737-0.767-1.12-1.771-1.077-2.828c0.061-1.538,1.113-2.943,2.617-3.496c0.549-0.201,1.115-0.277,1.688-0.228c0.332-1.269,1.506-2.198,2.882-2.198c0.431,0,0.854,0.094,1.24,0.269c0.011-0.198,0.035-0.397,0.073-0.597c0.35-1.844,1.923-3.291,3.827-3.519c1.249-0.154,2.463,0.2,3.418,0.983c0.668,0.548,1.147,1.255,1.399,2.048c0.717-0.568,1.61-0.882,2.557-0.882c2.257,0,4.093,1.802,4.093,4.017c0,0.02,0,0.04,0,0.06c1.603,0.52,2.726,2.011,2.726,3.699C46.82,72.235,45.039,73.982,42.851,73.982z M34.081,73.982h-0.327c-0.276,0-0.5-0.224-0.5-0.5s0.224-0.5,0.5-0.5h0.327c0.276,0,0.5,0.224,0.5,0.5S34.357,73.982,34.081,73.982z"/><path fill="#472b29" d="M41.3 68.69c-.018 0-.037-.002-.056-.006-.134-.031-.219-.165-.188-.3.035-.152.087-.3.156-.439.554-1.123 2.084-1.538 3.41-.924.125.058.18.206.122.331-.058.126-.206.181-.332.122-1.082-.501-2.316-.189-2.751.691-.051.104-.09.216-.117.33C41.517 68.612 41.414 68.69 41.3 68.69zM36.616 73.982H35.61c-.276 0-.5-.224-.5-.5s.224-.5.5-.5h1.005c.276 0 .5.224.5.5S36.892 73.982 36.616 73.982z"/><path fill="#fdfcef" d="M73.807,60.381c0,0,10.616,0,10.681,0c2.452,0,4.439-1.987,4.439-4.439c0-2.139-1.513-3.924-3.527-4.344c0.023-0.187,0.039-0.377,0.039-0.57c0-2.539-2.058-4.598-4.597-4.598c-1.499,0-2.827,0.721-3.666,1.831c-0.215-2.826-2.739-5.007-5.693-4.646c-2.16,0.264-3.947,1.934-4.344,4.073c-0.127,0.686-0.114,1.352,0.013,1.977c-0.579-0.624-1.403-1.016-2.322-1.016c-1.68,0-3.052,1.308-3.16,2.961c-0.763-0.169-1.593-0.158-2.467,0.17c-1.671,0.627-2.861,2.2-2.93,3.983c-0.099,2.533,1.925,4.617,4.435,4.617c0.191,0,0.861,0,1.015,0h9.218"/><path fill="#472b29" d="M84.488,60.881H73.807c-0.276,0-0.5-0.224-0.5-0.5s0.224-0.5,0.5-0.5h10.681c2.172,0,3.939-1.768,3.939-3.939c0-1.854-1.316-3.476-3.129-3.854c-0.254-0.053-0.425-0.292-0.394-0.55c0.021-0.168,0.035-0.337,0.035-0.51c0-2.26-1.838-4.098-4.098-4.098c-1.292,0-2.483,0.595-3.267,1.633c-0.125,0.166-0.338,0.237-0.54,0.178c-0.199-0.059-0.342-0.234-0.357-0.441c-0.094-1.238-0.7-2.401-1.663-3.19c-0.973-0.797-2.206-1.149-3.471-0.997c-1.947,0.238-3.556,1.746-3.913,3.669c-0.112,0.6-0.108,1.2,0.011,1.785c0.044,0.22-0.062,0.442-0.262,0.545c-0.198,0.103-0.442,0.059-0.595-0.105c-0.512-0.553-1.206-0.856-1.955-0.856c-1.4,0-2.569,1.096-2.661,2.494c-0.01,0.146-0.082,0.28-0.199,0.368s-0.267,0.117-0.408,0.088c-0.757-0.168-1.469-0.118-2.183,0.149c-1.499,0.562-2.546,1.983-2.606,3.535c-0.042,1.084,0.347,2.109,1.096,2.889c0.75,0.779,1.758,1.209,2.839,1.209h10.233c0.276,0,0.5,0.224,0.5,0.5s-0.224,0.5-0.5,0.5H60.708c-1.356,0-2.62-0.538-3.56-1.516c-0.939-0.978-1.428-2.263-1.375-3.621c0.076-1.949,1.383-3.73,3.254-4.432c0.72-0.271,1.462-0.362,2.221-0.279c0.362-1.655,1.842-2.885,3.582-2.885c0.603,0,1.194,0.151,1.72,0.432c0.004-0.327,0.036-0.655,0.097-0.983c0.436-2.347,2.4-4.188,4.775-4.478c1.537-0.193,3.039,0.243,4.226,1.216c0.899,0.737,1.543,1.742,1.847,2.851c0.919-0.808,2.095-1.256,3.347-1.256c2.811,0,5.098,2.287,5.098,5.098c0,0.064-0.001,0.128-0.004,0.192c2.047,0.628,3.492,2.547,3.492,4.722C89.427,58.665,87.211,60.881,84.488,60.881z"/><path fill="#fdfcef" d="M71.235,50.603c-1.642-0.108-3.055,1.026-3.157,2.533c-0.013,0.187-0.004,0.371,0.023,0.55c-0.317-0.358-0.786-0.6-1.324-0.636c-0.985-0.065-1.836,0.586-1.959,1.471c-0.179-0.049-0.366-0.082-0.56-0.095c-1.437-0.094-2.674,0.898-2.762,2.216"/><path fill="#472b29" d="M61.497,56.892c-0.006,0-0.012,0-0.017-0.001c-0.138-0.009-0.242-0.128-0.233-0.266c0.098-1.454,1.454-2.57,3.028-2.448c0.117,0.007,0.235,0.022,0.353,0.044c0.26-0.878,1.16-1.494,2.166-1.42c0.376,0.024,0.73,0.138,1.035,0.329c0-0.004,0-0.008,0-0.012c0.11-1.643,1.634-2.896,3.423-2.765c0.138,0.009,0.242,0.128,0.233,0.266s-0.126,0.249-0.266,0.232c-1.505-0.089-2.799,0.932-2.891,2.3c-0.011,0.166-0.004,0.333,0.021,0.496c0.017,0.11-0.041,0.218-0.141,0.265c-0.098,0.047-0.22,0.023-0.293-0.061c-0.285-0.322-0.706-0.523-1.153-0.553c-0.853-0.044-1.59,0.496-1.696,1.256c-0.01,0.071-0.05,0.135-0.11,0.175c-0.061,0.039-0.134,0.051-0.204,0.032c-0.17-0.046-0.341-0.075-0.51-0.087c-1.304-0.07-2.417,0.805-2.497,1.983C61.737,56.79,61.627,56.892,61.497,56.892z"/><path fill="#fdfcef" d="M86.285,52.118c-1.543-0.727-3.327-0.213-3.985,1.15c-0.082,0.169-0.142,0.344-0.182,0.521"/><path fill="#472b29" d="M82.118,54.039c-0.018,0-0.037-0.002-0.055-0.006c-0.135-0.031-0.219-0.165-0.188-0.3c0.044-0.195,0.112-0.388,0.2-0.573c0.717-1.484,2.655-2.053,4.317-1.269c0.125,0.06,0.179,0.208,0.12,0.333c-0.059,0.126-0.209,0.176-0.333,0.12c-1.417-0.668-3.055-0.205-3.654,1.032c-0.072,0.151-0.127,0.309-0.164,0.468C82.335,53.959,82.232,54.039,82.118,54.039z"/><path fill="#fdfcee" d="M35.462,76.778V38.182c0-3.208,2.624-5.832,5.832-5.832h24.351c3.208,0,5.832,2.624,5.832,5.832v38.595c0,3.208-2.624,5.832-5.832,5.832H41.294C38.087,82.61,35.462,79.985,35.462,76.778z"/><path fill="#472b29" d="M65.646,83.31H41.294c-3.602,0-6.532-2.931-6.532-6.532V38.182c0-3.602,2.931-6.532,6.532-6.532h24.351c3.602,0,6.532,2.931,6.532,6.532v38.596C72.178,80.379,69.247,83.31,65.646,83.31z M41.294,33.05c-2.83,0-5.132,2.302-5.132,5.132v38.596c0,2.83,2.302,5.132,5.132,5.132h24.351c2.83,0,5.132-2.302,5.132-5.132V38.182c0-2.83-2.302-5.132-5.132-5.132H41.294z"/><path fill="#a8dbdb" d="M58.973,37.305H47.966c-0.456,0-0.83-0.373-0.83-0.83v0c0-0.456,0.373-0.83,0.83-0.83h11.007c0.456,0,0.83,0.373,0.83,0.83v0C59.803,36.932,59.43,37.305,58.973,37.305z"/><path fill="#472b29" d="M58.973,37.805H47.966c-0.733,0-1.33-0.597-1.33-1.329c0-0.733,0.597-1.33,1.33-1.33h11.007c0.733,0,1.33,0.597,1.33,1.33C60.303,37.208,59.707,37.805,58.973,37.805z M47.966,36.146c-0.182,0-0.33,0.148-0.33,0.33s0.148,0.329,0.33,0.329h11.007c0.179,0,0.33-0.15,0.33-0.329c0-0.182-0.148-0.33-0.33-0.33H47.966z"/><path fill="#e1e0d8" d="M49.576 22.618H57.364000000000004V37.306H49.576z"/><path fill="#472b29" d="M57.364,37.805h-7.789c-0.276,0-0.5-0.224-0.5-0.5V22.618c0-0.276,0.224-0.5,0.5-0.5h7.789c0.276,0,0.5,0.224,0.5,0.5v14.687C57.864,37.581,57.641,37.805,57.364,37.805z M50.076,36.805h6.789V23.118h-6.789V36.805z"/><path fill="#472b29" d="M56.961 26.501h-7.125c-.166 0-.3-.134-.3-.3s.134-.3.3-.3h7.125c.166 0 .3.134.3.3S57.127 26.501 56.961 26.501zM53.47 33.892c-1.315 0-2.386-1.07-2.386-2.386 0-1.315 1.07-2.386 2.386-2.386s2.386 1.07 2.386 2.386C55.855 32.822 54.785 33.892 53.47 33.892zM53.47 29.72c-.985 0-1.786.802-1.786 1.786 0 .984.801 1.786 1.786 1.786s1.786-.802 1.786-1.786C55.256 30.522 54.455 29.72 53.47 29.72z"/><path fill="#e1e0d8" d="M53.47 42.818999999999996A10.6 10.6 0 1 0 53.47 64.01899999999999A10.6 10.6 0 1 0 53.47 42.818999999999996Z"/><path fill="#472b29" d="M53.47 64.369c-6.038 0-10.95-4.912-10.95-10.95s4.912-10.949 10.95-10.949c6.038 0 10.95 4.911 10.95 10.949S59.508 64.369 53.47 64.369zM53.47 43.168c-5.652 0-10.25 4.599-10.25 10.25 0 5.652 4.598 10.251 10.25 10.251s10.25-4.599 10.25-10.251C63.72 47.767 59.122 43.168 53.47 43.168zM63.231 67.44H44.525c-.166 0-.3-.134-.3-.3s.134-.3.3-.3h18.706c.166 0 .3.134.3.3S63.397 67.44 63.231 67.44zM63.231 69.774H44.525c-.166 0-.3-.134-.3-.3s.134-.3.3-.3h18.706c.166 0 .3.134.3.3S63.397 69.774 63.231 69.774zM61.897 72.108H45.859c-.166 0-.3-.134-.3-.3s.134-.3.3-.3h16.038c.166 0 .3.134.3.3S62.063 72.108 61.897 72.108z"/><path fill="#e1e0d8" d="M46.532,79.14L46.532,79.14c-0.301,0-0.548-0.246-0.548-0.548v-2.06c0-0.301,0.246-0.548,0.548-0.548h0c0.301,0,0.548,0.246,0.548,0.548v2.06C47.08,78.893,46.833,79.14,46.532,79.14z"/><path fill="#472b29" d="M46.532,79.34c-0.412,0-0.748-0.336-0.748-0.748v-2.06c0-0.412,0.335-0.748,0.748-0.748c0.413,0,0.748,0.336,0.748,0.748v2.06C47.28,79.004,46.944,79.34,46.532,79.34z M46.532,76.185c-0.191,0-0.347,0.156-0.347,0.348v2.06c0,0.191,0.156,0.348,0.347,0.348c0.192,0,0.348-0.156,0.348-0.348v-2.06C46.879,76.341,46.724,76.185,46.532,76.185z"/><path fill="#e1e0d8" d="M49.532,79.14L49.532,79.14c-0.301,0-0.548-0.246-0.548-0.548v-2.06c0-0.301,0.246-0.548,0.548-0.548l0,0c0.301,0,0.548,0.246,0.548,0.548v2.06C50.08,78.893,49.833,79.14,49.532,79.14z"/><path fill="#472b29" d="M49.532,79.34c-0.413,0-0.748-0.336-0.748-0.748v-2.06c0-0.412,0.335-0.748,0.748-0.748s0.748,0.336,0.748,0.748v2.06C50.28,79.004,49.945,79.34,49.532,79.34z M49.532,76.185c-0.192,0-0.348,0.156-0.348,0.348v2.06c0,0.191,0.156,0.348,0.348,0.348s0.348-0.156,0.348-0.348v-2.06C49.88,76.341,49.724,76.185,49.532,76.185z"/><path fill="#e1e0d8" d="M52.532,79.14L52.532,79.14c-0.301,0-0.548-0.246-0.548-0.548v-2.06c0-0.301,0.246-0.548,0.548-0.548l0,0c0.301,0,0.548,0.246,0.548,0.548v2.06C53.08,78.893,52.834,79.14,52.532,79.14z"/><path fill="#472b29" d="M52.532,79.34c-0.412,0-0.748-0.336-0.748-0.748v-2.06c0-0.412,0.335-0.748,0.748-0.748c0.413,0,0.748,0.336,0.748,0.748v2.06C53.28,79.004,52.945,79.34,52.532,79.34z M52.532,76.185c-0.191,0-0.347,0.156-0.347,0.348v2.06c0,0.191,0.156,0.348,0.347,0.348c0.192,0,0.348-0.156,0.348-0.348v-2.06C52.88,76.341,52.724,76.185,52.532,76.185z"/><path fill="#e1e0d8" d="M55.533,79.14L55.533,79.14c-0.301,0-0.548-0.246-0.548-0.548v-2.06c0-0.301,0.246-0.548,0.548-0.548h0c0.301,0,0.548,0.246,0.548,0.548v2.06C56.08,78.893,55.834,79.14,55.533,79.14z"/><path fill="#472b29" d="M55.533,79.34c-0.413,0-0.748-0.336-0.748-0.748v-2.06c0-0.412,0.335-0.748,0.748-0.748s0.748,0.336,0.748,0.748v2.06C56.281,79.004,55.945,79.34,55.533,79.34z M55.533,76.185c-0.192,0-0.348,0.156-0.348,0.348v2.06c0,0.191,0.156,0.348,0.348,0.348s0.348-0.156,0.348-0.348v-2.06C55.88,76.341,55.725,76.185,55.533,76.185z"/><path fill="#e1e0d8" d="M58.533,79.14L58.533,79.14c-0.301,0-0.548-0.246-0.548-0.548v-2.06c0-0.301,0.246-0.548,0.548-0.548h0c0.301,0,0.548,0.246,0.548,0.548v2.06C59.081,78.893,58.834,79.14,58.533,79.14z"/><path fill="#472b29" d="M58.533,79.34c-0.412,0-0.748-0.336-0.748-0.748v-2.06c0-0.412,0.335-0.748,0.748-0.748c0.413,0,0.748,0.336,0.748,0.748v2.06C59.281,79.004,58.945,79.34,58.533,79.34z M58.533,76.185c-0.191,0-0.347,0.156-0.347,0.348v2.06c0,0.191,0.156,0.348,0.347,0.348c0.192,0,0.348-0.156,0.348-0.348v-2.06C58.88,76.341,58.725,76.185,58.533,76.185z"/><path fill="#e1e0d8" d="M61.533,79.14L61.533,79.14c-0.301,0-0.548-0.246-0.548-0.548v-2.06c0-0.301,0.246-0.548,0.548-0.548l0,0c0.301,0,0.548,0.246,0.548,0.548v2.06C62.081,78.893,61.834,79.14,61.533,79.14z"/><path fill="#472b29" d="M61.533,79.34c-0.413,0-0.748-0.336-0.748-0.748v-2.06c0-0.412,0.335-0.748,0.748-0.748c0.412,0,0.748,0.336,0.748,0.748v2.06C62.281,79.004,61.945,79.34,61.533,79.34z M61.533,76.185c-0.192,0-0.348,0.156-0.348,0.348v2.06c0,0.191,0.156,0.348,0.348,0.348c0.191,0,0.347-0.156,0.347-0.348v-2.06C61.88,76.341,61.725,76.185,61.533,76.185z"/><path fill="#ee3e54" d="M50.055 23.084H56.884V25.941H50.055z"/><path fill="#472b29" d="M59.345,50.164c-0.05-0.189-0.187-0.332-0.34-0.422c-0.014-0.008-0.029-0.015-0.044-0.022c0.004-0.013,0.009-0.026,0.013-0.039c0.053-0.117,0.076-0.243,0.072-0.376v-0.073c-0.002-0.182-0.044-0.352-0.127-0.509c-0.046-0.065-0.093-0.13-0.139-0.195c0.024-0.023,0.047-0.048,0.068-0.076c0.083-0.093,0.141-0.201,0.172-0.324c0.049-0.115,0.07-0.237,0.063-0.366v-0.073c-0.004-0.176-0.048-0.34-0.132-0.49c-0.05-0.068-0.1-0.135-0.15-0.203c-0.035-0.036-0.072-0.066-0.11-0.095c0.023-0.018,0.047-0.037,0.07-0.055c0.143-0.137,0.211-0.346,0.227-0.549c0.008-0.109-0.009-0.211-0.05-0.308c-0.026-0.105-0.074-0.197-0.146-0.276c-0.064-0.081-0.14-0.139-0.229-0.174c-0.082-0.051-0.17-0.077-0.266-0.078h-0.065c-0.007,0-0.013,0.001-0.02,0.001c0.092-0.199,0.137-0.422,0.117-0.627c-0.059-0.586-0.486-0.914-0.971-0.96c0.004-0.031,0.008-0.062,0.01-0.093c0.028-0.615-0.434-1.241-1.01-1.241c-0.153,0-0.301,0.033-0.438,0.092c-0.122-0.447-0.515-0.703-0.94-0.703c-0.131,0-0.253,0.043-0.361,0.114c-0.002-0.004-0.003-0.008-0.005-0.012c-0.037-0.059-0.074-0.118-0.111-0.177c-0.126-0.167-0.32-0.249-0.51-0.271c-0.104-0.011-0.202,0.007-0.295,0.054c-0.097,0.028-0.182,0.081-0.254,0.161c-0.051,0.048-0.092,0.104-0.125,0.165c-0.032-0.062-0.074-0.117-0.125-0.165c-0.073-0.079-0.158-0.133-0.254-0.161c-0.093-0.047-0.191-0.065-0.295-0.054c-0.19,0.022-0.384,0.104-0.51,0.271c-0.037,0.059-0.074,0.118-0.111,0.177c-0.002,0.004-0.003,0.008-0.005,0.012c-0.108-0.071-0.23-0.114-0.361-0.114c-0.425,0-0.818,0.256-0.94,0.703c-0.136-0.06-0.284-0.092-0.438-0.092c-0.576,0-1.038,0.626-1.01,1.241c0.001,0.032,0.006,0.063,0.01,0.093c-0.485,0.045-0.913,0.374-0.971,0.96c-0.02,0.205,0.025,0.428,0.117,0.627c-0.007,0-0.013-0.001-0.02-0.001h-0.065c-0.096,0.001-0.184,0.027-0.266,0.078c-0.089,0.035-0.165,0.093-0.229,0.174c-0.071,0.079-0.12,0.171-0.146,0.276c-0.041,0.097-0.058,0.199-0.05,0.308c0.016,0.203,0.084,0.413,0.227,0.549c0.023,0.018,0.047,0.037,0.07,0.055c-0.038,0.028-0.075,0.059-0.11,0.095c-0.05,0.068-0.1,0.135-0.15,0.203c-0.083,0.151-0.127,0.314-0.132,0.49v0.073c-0.007,0.129,0.014,0.251,0.063,0.366c0.032,0.123,0.089,0.231,0.172,0.324c0.021,0.027,0.044,0.052,0.068,0.076c-0.046,0.065-0.093,0.13-0.139,0.195c-0.083,0.157-0.126,0.327-0.127,0.509v0.073c-0.005,0.134,0.019,0.259,0.072,0.376c0.004,0.013,0.009,0.026,0.013,0.039c-0.015,0.007-0.03,0.013-0.044,0.022c-0.152,0.089-0.289,0.233-0.34,0.422c-0.048,0.18-0.05,0.376,0.028,0.548c0.022,0.048,0.044,0.097,0.065,0.145c0.077,0.171,0.216,0.314,0.38,0.377c0.068,0.029,0.137,0.04,0.208,0.036c0.011,0.054,0.028,0.105,0.055,0.153c0.029,0.084,0.076,0.154,0.14,0.212c0.059,0.061,0.126,0.102,0.203,0.124c0.073,0.036,0.15,0.049,0.23,0.041c0.018-0.002,0.036-0.005,0.053-0.008c-0.07,0.128-0.111,0.271-0.111,0.426v0.073c-0.003,0.115,0.019,0.222,0.067,0.321c0.031,0.104,0.084,0.194,0.159,0.269c0.068,0.079,0.148,0.134,0.24,0.166c0.087,0.049,0.18,0.071,0.279,0.067c0.066-0.01,0.132-0.02,0.197-0.03c0.02-0.006,0.038-0.015,0.057-0.022c0.004,0.072,0.016,0.142,0.039,0.211c0.021,0.121,0.068,0.229,0.141,0.326c0.068,0.105,0.154,0.183,0.258,0.236c0.096,0.073,0.204,0.115,0.322,0.125c0.074-0.002,0.148-0.003,0.222-0.005c0.063-0.011,0.123-0.03,0.181-0.055c0.023,0.055,0.053,0.107,0.091,0.155c0.061,0.089,0.136,0.155,0.226,0.198c0.085,0.062,0.179,0.096,0.283,0.103c0.067-0.003,0.135-0.005,0.202-0.008c0.092-0.018,0.177-0.054,0.255-0.106c0.169,0.31,0.466,0.534,0.887,0.534c0.284,0,0.505-0.102,0.667-0.262c0.162,0.16,0.384,0.262,0.667,0.262c0.421,0,0.718-0.224,0.887-0.534c0.078,0.052,0.163,0.087,0.255,0.106c0.067,0.003,0.135,0.005,0.202,0.008c0.104-0.007,0.198-0.041,0.283-0.103c0.09-0.044,0.165-0.11,0.226-0.198c0.038-0.048,0.068-0.1,0.091-0.155c0.058,0.025,0.118,0.044,0.181,0.055c0.074,0.002,0.148,0.003,0.222,0.005c0.119-0.01,0.226-0.052,0.322-0.125c0.104-0.052,0.19-0.131,0.258-0.236c0.073-0.096,0.12-0.205,0.141-0.326c0.023-0.069,0.036-0.139,0.039-0.211c0.019,0.008,0.037,0.016,0.057,0.022c0.066,0.01,0.132,0.02,0.197,0.03c0.099,0.004,0.192-0.018,0.279-0.067c0.092-0.032,0.172-0.087,0.24-0.166c0.075-0.075,0.128-0.165,0.159-0.269c0.048-0.099,0.07-0.206,0.067-0.321v-0.073c0-0.155-0.041-0.299-0.111-0.426c0.018,0.003,0.036,0.006,0.053,0.008c0.081,0.008,0.158-0.005,0.23-0.041c0.076-0.022,0.144-0.063,0.203-0.124c0.064-0.058,0.111-0.128,0.14-0.212c0.026-0.048,0.044-0.099,0.055-0.153c0.07,0.004,0.14-0.007,0.208-0.036c0.164-0.062,0.303-0.206,0.38-0.377c0.022-0.048,0.044-0.097,0.065-0.145C59.395,50.54,59.393,50.344,59.345,50.164z"/><path fill="#edb88c" d="M59.921,60.203c-0.295-0.209-4.077-1.535-4.077-1.535c-0.24-0.065-0.374-0.261-0.417-0.481c-0.121-0.622-0.107-2.12-0.104-2.387c0-0.021-0.019-0.037-0.042-0.037h-0.143H51.63h-0.143c-0.024,0-0.043,0.016-0.042,0.037c0.003,0.264,0.015,1.732-0.104,2.387c-0.04,0.221-0.177,0.417-0.417,0.481l-3.092,1.076c-0.31,0.086-0.607,0.208-0.868,0.379c-1.365,0.893-1.404,3.554-1.461,3.826c-0.005,0.023,0.015,0.044,0.042,0.044h7.839h7.839c0.027,0,0.047-0.021,0.042-0.044C61.21,63.685,61.19,61.1,59.921,60.203z"/><path fill="#472b29" d="M55.28,55.763c0.024,0,0.043,0.016,0.042,0.037c-0.003,0.267-0.018,1.765,0.104,2.387c0.043,0.22,0.177,0.417,0.417,0.481c0,0,3.783,1.326,4.077,1.535c1.269,0.897,1.289,3.482,1.344,3.746c0.005,0.023-0.015,0.044-0.042,0.044h-7.839h-7.839c-0.027,0-0.047-0.021-0.042-0.044c0.057-0.272,0.096-2.933,1.461-3.826c0.261-0.171,0.559-0.293,0.868-0.379l3.092-1.076c0.24-0.065,0.377-0.261,0.417-0.481c0.119-0.655,0.106-2.123,0.104-2.387c0-0.021,0.019-0.037,0.042-0.037h0.143h3.507H55.28 M55.28,55.263h-0.143H51.63h-0.143h-0.209l-0.179,0.161c-0.101,0.102-0.156,0.238-0.155,0.381c0.009,0.805-0.012,1.83-0.096,2.293c-0.014,0.076-0.045,0.085-0.055,0.088l-3.127,1.086c-0.351,0.096-0.69,0.245-0.978,0.433c-1.382,0.904-1.583,3.128-1.66,3.965c-0.008,0.085-0.013,0.149-0.018,0.184l-0.036,0.222l0.146,0.218c0.103,0.127,0.257,0.2,0.422,0.2h7.839h7.839h0.238l0.185-0.2c0.102-0.125,0.142-0.288,0.109-0.446c-0.004-0.028-0.009-0.094-0.016-0.182c-0.068-0.811-0.25-2.966-1.528-3.871c-0.306-0.217-2.763-1.094-4.201-1.598c-0.062-0.018-0.081-0.05-0.092-0.105c-0.085-0.435-0.104-1.466-0.094-2.286l0.003-0.209l-0.157-0.173C55.567,55.322,55.426,55.263,55.28,55.263L55.28,55.263z"/><path fill="#f2ba8c" d="M59.379,51.111c0.067-0.231,0.124-0.458,0.204-0.683c0.104-0.295,0.03-0.483-0.296-0.666c-0.015-0.008-0.027-0.018-0.04-0.028c-0.052-0.008-0.102-0.015-0.145-0.02c-0.294-0.035-0.816-0.05-0.967-0.356c-0.172-0.347-0.087-0.715-0.042-1.081c0.049-0.403-0.103-0.791-0.104-1.193c-0.027-0.039-0.047-0.086-0.052-0.142c-0.06-0.593-0.233-1.16-0.464-1.708c-0.812-1.076-2.328-1.803-4.064-1.803c-2.588,0-4.693,1.614-4.693,3.598c0,0.094,0.006,0.187,0.016,0.279c-0.025,0.359-0.059,0.678-0.043,1.071c0.015,0.347-0.036,0.605-0.003,1.064c0.019,0.258-0.099,0.092-0.512,0.112c-0.053,0-0.104,0.001-0.154,0.004c-0.453,0.031-0.819,0.322-0.897,0.683c0.055,0.034,0.1,0.089,0.12,0.17c0.165,0.67,0.142,1.445,0.476,2.067c0.186,0.348,0.477,0.396,0.776,0.62c0.166,0.124,0.198,0.265,0.243,0.451c0.168,0.688,0.634,1.273,1.144,1.772c0.258,0.253,0.536,0.48,0.816,0.71c0.233,0.191,0.476,0.412,0.764,0.525c0.096,0.038,0.156,0.106,0.185,0.182c0.191,0.102,0.461,0.247,0.461,0.244c0.922,0.371,1.806,0.402,2.739-0.018c0,0.004,0,0.007,0,0.011c0.005-0.003,0.454-0.22,0.638-0.322c0.014-0.02,0.031-0.039,0.053-0.058c0.283-0.239,0.596-0.439,0.887-0.667c0.239-0.188,0.435-0.396,0.62-0.622c-0.043-0.098,0.052-0.014,0.14-0.116c0.414-0.48,0.802-1.238,0.87-1.854c0.003-0.032,0.026-0.055,0.043-0.078c-0.054-0.171,0.079-0.264,0.323-0.271c0.221-0.006,0.352-0.256,0.521-0.376C59.068,52.127,59.239,51.589,59.379,51.111z"/><path fill="#8e7469" d="M58.259,50.706c0.005-0.078,0.006-0.157-0.002-0.235l0.585,0.113l-0.212,1.063l-0.236-0.043l0.168-0.84L58.259,50.706z" opacity=".8"/><path fill="#472b29" d="M59.05,49.568c-0.201-0.051-0.415-0.056-0.641-0.084c0-0.024-0.058,0.026-0.058,0.002c-0.143-0.014-0.218-0.183-0.221-0.359c-0.004-0.356-0.048-0.746-0.017-1.118c0.009-0.336-0.051-0.551-0.116-0.789c0.01-0.098,0.016-0.196,0.016-0.296c0-2.039-2.105-3.698-4.693-3.698c-2.588,0-4.693,1.659-4.693,3.698c0,0.097,0.006,0.192,0.016,0.287c-0.025,0.369-0.059,0.697-0.043,1.1c0.015,0.357-0.036,0.622-0.003,1.093c0.019,0.266-0.099,0.094-0.512,0.115c-0.053,0-0.104,0.001-0.154,0.004c-0.561,0.039-0.99,0.49-0.901,0.978c0.103,0.565,0.227,1.128,0.367,1.686c0.139,0.552,0.411,1.005,1.073,1.069c0.085,0.718,0.238,1.083,0.69,1.649c0.615,0.769,1.344,1.425,2.226,1.903c0.091,0.05,0.633,0.349,0.633,0.345c0.922,0.381,1.806,0.413,2.739-0.018c0,0.004,0,0.007,0,0.011c0.006-0.003,0.587-0.293,0.697-0.367c0.442-0.297,0.893-0.594,1.282-0.949c0.771-0.704,1.5-1.45,1.575-2.577c0.654-0.059,0.926-0.505,1.065-1.044c0.137-0.528,0.236-1.066,0.346-1.6C59.83,50.096,59.582,49.703,59.05,49.568z M48.469,52.867c-0.328,0.008-0.545-0.121-0.66-0.488c-0.157-0.503-0.392-1.551-0.395-1.56c-0.248-0.765,0.22-1.104,1.054-0.943v0.444c-0.004,0-0.008,0.369,0,0.371V52.867z M57.951,53.392c-0.002,0.198-0.035,0.422-0.134,0.59c-0.915,1.549-2.202,2.675-4.047,3.122c-0.64,0.155-1.24-0.068-1.797-0.335c-1.166-0.559-2.1-1.38-2.812-2.425c-0.233-0.342-0.359-0.71-0.341-1.131c0.024-0.556,0.006-1.113,0.006-1.67c0-0.068,0.005-0.137-0.001-0.205c-0.137-1.529,0.181-4.36,0.181-4.416c0-1.841,1.936-3.338,4.316-3.338c2.38,0,4.394,1.497,4.394,3.338c0,0.038,0.015,0.082,0.014,0.12c0.163,0.156,0.043,1.644,0.212,2.394c0.019,0.085,0.016,0.175,0.016,0.263C57.957,50.93,57.963,52.161,57.951,53.392z M59.417,50.481c-0.121,0.641-0.269,1.279-0.449,1.907c-0.102,0.355-0.293,0.462-0.656,0.496v-2.188c0.001,0,0.002,0,0.002-0.001c-0.001-0.007-0.002-0.013-0.002-0.021v-0.462c-0.003-0.001-0.005-0.003-0.008-0.004V49.84c0.195,0,0.377-0.012,0.556,0.003C59.224,49.872,59.482,50.136,59.417,50.481z"/><path fill="#8e7469" d="M48.554,50.897c-0.006-0.082-0.007-0.165,0.002-0.247l-0.615,0.119l0.223,1.117l0.248-0.045l-0.176-0.883L48.554,50.897z" opacity=".8"/><path fill="#472b29" d="M53.362,52.858c0.311,0,0.612-0.136,0.807-0.363c0.019-0.023,0.017-0.057-0.006-0.077l0,0c-0.023-0.019-0.057-0.017-0.077,0.005c-0.158,0.181-0.422,0.285-0.724,0.285c-0.302,0-0.566-0.104-0.724-0.285c-0.011-0.012-0.026-0.019-0.041-0.019c-0.013,0-0.025,0.004-0.036,0.013c-0.023,0.02-0.025,0.054-0.006,0.077C52.749,52.722,53.051,52.858,53.362,52.858z" opacity=".49"/><path fill="#472b29" d="M52.37 48.656l.197-.379c-.835-.196-1.795-.164-2.588.082l.249.369C50.879 48.513 51.681 48.485 52.37 48.656zM56.547 48.656l.197-.379c-.834-.196-1.795-.164-2.588.082l.249.369C55.057 48.513 55.859 48.485 56.547 48.656zM51.169 49.191c-.2 0-.376.133-.478.333.025-.008.052-.013.079-.013.164 0 .298.149.298.332 0 .184-.133.332-.298.332-.054 0-.104-.017-.147-.045.07.301.288.52.546.52.315 0 .57-.327.57-.73C51.739 49.517 51.484 49.191 51.169 49.191zM55.531 49.191c-.171 0-.324.097-.429.25.033-.014.068-.022.105-.022.164 0 .298.149.298.332s-.133.332-.298.332c-.102 0-.192-.057-.245-.145.007.395.259.712.569.712.315 0 .57-.327.57-.73C56.101 49.517 55.846 49.191 55.531 49.191z"/><path fill="#472b29" d="M55.773,53.703c0.023-0.019,0.027-0.053,0.008-0.077l0,0c-0.019-0.023-0.053-0.027-0.077-0.008c-0.514,0.41-1.368,0.645-2.342,0.645c-0.974,0-1.828-0.235-2.342-0.645c-0.01-0.008-0.022-0.012-0.034-0.012c-0.016,0-0.032,0.007-0.043,0.02c-0.019,0.023-0.015,0.058,0.008,0.077c0.58,0.474,1.482,0.757,2.411,0.757C54.291,54.461,55.192,54.178,55.773,53.703z" opacity=".49"/><path fill="#ee3e54" d="M59.974,60.161c-0.296-0.212-0.637-0.368-0.998-0.469l-0.38-0.102c0.002-0.001,0.005-0.001,0.008-0.002l-1.982-0.652c-1.005,0.274-2.084,0.424-3.209,0.424c-1.124,0-2.203-0.151-3.209-0.424l-1.982,0.652c0.003,0.001,0.005,0.001,0.008,0.002l-0.39,0.105c-0.311,0.087-0.609,0.212-0.871,0.385c-1.37,0.907-1.409,3.592-1.466,3.868c-0.005,0.024,0.015,0.045,0.042,0.045h7.868h7.868c0.027,0,0.047-0.021,0.042-0.045C61.267,63.68,61.247,61.073,59.974,60.161z"/><path fill="#472b29" d="M48.855 48.02c.214-.989.563-1.947 1.04-2.828-.149-.226-.429-.285-.688-.221-.767 1.224-.941 2.77-.959 3.849.037.631.136 1.25.322 1.808C48.72 49.769 48.668 48.886 48.855 48.02zM57.814 48.02c-.214-.989-.563-1.947-1.04-2.828.149-.226.429-.285.688-.221.767 1.224.941 2.77.959 3.849-.037.631-.136 1.25-.322 1.808C57.948 49.769 58.001 48.886 57.814 48.02z"/><path fill="#472b29" d="M58.541,48.298c0.215-2.231-0.43-3.503-0.903-4.131c-1.15-0.953-2.681-1.535-4.362-1.535c-1.401,0-2.697,0.405-3.756,1.092c-0.89,0.908-1.937,2.565-1.409,4.574c0.037,0.631,0.266,2.384,0.451,2.942c0.15-0.859,0.097-2.876,0.284-3.742c0.137-0.635,0.331-1.256,0.578-1.853c1.252-1.379,6.452-1.317,7.804,0c0.247,0.597,0.441,1.218,0.578,1.853c0.187,0.866,0.134,2.883,0.284,3.742C58.275,50.682,58.504,48.929,58.541,48.298z"/><path fill="#ee3e54" d="M52.789 49.47c-.894-1.09-4.265-.317-4.268-.318.062.246.116.489.164.729.25.026.265.588.29.794.121.994.786 1.726 2.186 1.691 1.403-.073 1.731-1.088 1.788-1.727C53.011 49.942 52.788 49.472 52.789 49.47zM52.629 50.69c-.072.89-.619 1.411-1.503 1.454-.089.005-.177.005-.26.002-1.393-.003-1.631-1.221-1.659-1.993-.018-.441.298-.819.742-.863.256-.025.544-.025.876-.025 1.041 0 1.494.248 1.614.448C52.511 49.832 52.669 50.207 52.629 50.69zM53.775 50.639c.058.639.386 1.654 1.788 1.727 1.4.035 2.064-.698 2.186-1.691.025-.206.04-.768.29-.794.049-.24.102-.483.164-.729-.004.001-3.374-.772-4.268.318C53.936 49.472 53.712 49.942 53.775 50.639zM54.284 49.713c.121-.199.574-.448 1.614-.448.333 0 .62 0 .876.025.445.044.76.422.742.863-.028.771-.266 1.99-1.659 1.993-.083.003-.17.003-.26-.002-.884-.043-1.431-.564-1.503-1.454C54.055 50.207 54.213 49.832 54.284 49.713z"/><path fill="#ee3e54" d="M53.967,50.326c0,0-0.229-0.18-0.628-0.18c-0.375,0-0.581,0.18-0.581,0.18c-0.061-0.169-0.122-0.337-0.184-0.506c0.526,0,1.051,0,1.577,0C54.089,49.988,54.028,50.157,53.967,50.326z"/><path fill="#472b29" d="M53.375 59.611c-1.072 0-2.327-.175-3.441-.479-.133-.036-.211-.174-.175-.307s.175-.211.307-.176c1.073.293 2.279.461 3.309.461.399 0 .808-.021 1.213-.061.135-.014.26.088.273.225.013.138-.087.26-.225.273C54.215 59.589 53.791 59.611 53.375 59.611zM55.41 59.443c-.12 0-.226-.087-.246-.21-.022-.136.07-.265.206-.287l.467-.088c.133-.022.267.059.295.194.028.135-.059.268-.194.296-.077.016-.155.032-.234.046l-.253.046C55.437 59.442 55.423 59.443 55.41 59.443z"/></svg>