<svg xmlns="http://www.w3.org/2000/svg"  viewBox="0 0 100 100" width="100px" height="100px"><path fill="#c7ede6" d="M88.703,55.674c0.3-0.616,0.566-1.264,0.796-1.943c2.633-7.77-1.349-17.078-9.733-19.325C78.86,23.023,70.86,15.214,61.825,13.881c-10.341-1.525-19.814,5.044-22.966,15.485c-3.799-1.346-7.501-1.182-10.99,0.857c-1.583,0.732-3.031,1.812-4.33,3.233c-1.907,2.086-3.147,4.719-3.652,7.495c-0.748,0.118-1.483,0.236-2.176,0.484c-4.04,1.449-6.589,4.431-7.288,8.923c-0.435,2.797,0.443,5.587,0.933,6.714c1.935,4.455,6.422,6.98,10.981,6.312c0.227-0.033,0.557,0.069,0.752,0.233c0.241,7.12,3.698,13.417,8.884,17.014c8.321,5.772,19.027,3.994,25.781-3.921c2.894,2.96,6.338,4.398,10.384,3.876c4.023-0.519,7.147-2.739,9.426-6.349c1.053,0.283,2.051,0.691,3.083,0.804c4.042,0.442,7.324-1.165,9.732-4.8c0.922-1.391,1.793-3.194,1.793-6.354C92.173,60.631,90.88,57.664,88.703,55.674z"/><path fill="#fff" d="M18.369 47.711H8.339c-.276 0-.5-.224-.5-.5s.224-.5.5-.5h10.03c.276 0 .5.224.5.5S18.645 47.711 18.369 47.711zM21.25 47.711h-1.445c-.276 0-.5-.224-.5-.5s.224-.5.5-.5h1.445c.276 0 .5.224.5.5S21.526 47.711 21.25 47.711zM25.304 47.711h-2.546c-.276 0-.5-.224-.5-.5s.224-.5.5-.5h2.546c.276 0 .5.224.5.5S25.581 47.711 25.304 47.711zM25.304 49.575h-9.616c-.276 0-.5-.224-.5-.5s.224-.5.5-.5h9.616c.276 0 .5.224.5.5S25.581 49.575 25.304 49.575zM13.957 49.575h-.58c-.276 0-.5-.224-.5-.5s.224-.5.5-.5h.58c.276 0 .5.224.5.5S14.233 49.575 13.957 49.575zM11.58 49.575h-1.456c-.276 0-.5-.224-.5-.5s.224-.5.5-.5h1.456c.276 0 .5.224.5.5S11.856 49.575 11.58 49.575zM20.715 45.845h-5.027c-.276 0-.5-.224-.5-.5s.224-.5.5-.5h5.027c.276 0 .5.224.5.5S20.992 45.845 20.715 45.845zM20.715 43.98h-1.258c-.276 0-.5-.224-.5-.5s.224-.5.5-.5h1.258c.276 0 .5.224.5.5S20.992 43.98 20.715 43.98zM17.447 51.44h-1.759c-.276 0-.5-.224-.5-.5s.224-.5.5-.5h1.759c.276 0 .5.224.5.5S17.723 51.44 17.447 51.44z"/><path fill="#fdfcef" d="M79.142,59.636c1.883,0,3.517,0,3.54,0c2.11,0,3.821-1.674,3.821-3.739c0-1.802-1.302-3.305-3.035-3.66c0.02-0.158,0.034-0.317,0.034-0.48c0-2.139-1.772-3.873-3.957-3.873c-1.29,0-2.433,0.607-3.155,1.543c-0.185-2.381-2.358-4.218-4.9-3.913c-1.859,0.223-3.397,1.629-3.739,3.431c-0.11,0.578-0.098,1.139,0.011,1.665c-0.498-0.525-1.208-0.856-1.998-0.856c-1.446,0-2.627,1.102-2.72,2.494c-0.657-0.142-1.371-0.133-2.123,0.143c-1.438,0.528-2.462,1.853-2.522,3.356c-0.085,2.133,1.657,3.889,3.818,3.889c0.164,0,0.741,0,0.874,0h7.934 M72.665,59.636h0.36"/><path fill="#472b29" d="M82.682,60.136h-3.54c-0.276,0-0.5-0.224-0.5-0.5s0.224-0.5,0.5-0.5h3.54c1.831,0,3.321-1.453,3.321-3.239c0-1.524-1.108-2.856-2.637-3.169c-0.256-0.053-0.429-0.295-0.396-0.555c0.018-0.137,0.03-0.274,0.03-0.416c0-1.86-1.551-3.373-3.457-3.373c-1.092,0-2.098,0.491-2.76,1.348c-0.127,0.164-0.339,0.232-0.539,0.174c-0.197-0.06-0.339-0.234-0.354-0.44c-0.079-1.02-0.565-1.944-1.369-2.604c-0.83-0.681-1.889-0.981-2.974-0.853c-1.646,0.197-3.006,1.443-3.307,3.028c-0.095,0.493-0.091,0.988,0.009,1.471c0.046,0.219-0.06,0.441-0.258,0.545c-0.196,0.103-0.439,0.063-0.595-0.1c-0.428-0.451-1.009-0.7-1.635-0.7c-1.17,0-2.146,0.891-2.221,2.028c-0.01,0.146-0.082,0.278-0.198,0.366c-0.116,0.087-0.265,0.121-0.407,0.089c-0.639-0.137-1.241-0.099-1.846,0.124c-1.262,0.464-2.144,1.632-2.193,2.906c-0.035,0.875,0.282,1.708,0.895,2.345c0.635,0.661,1.495,1.024,2.423,1.024h8.808c0.276,0,0.5,0.224,0.5,0.5s-0.224,0.5-0.5,0.5h-8.808c-1.185,0-2.331-0.485-3.144-1.331c-0.803-0.835-1.219-1.928-1.174-3.077c0.066-1.675,1.212-3.204,2.849-3.807c0.611-0.224,1.242-0.307,1.881-0.243c0.345-1.396,1.629-2.425,3.136-2.425c0.493,0,0.977,0.113,1.413,0.323c0.009-0.242,0.037-0.484,0.083-0.726c0.381-2.009,2.096-3.586,4.17-3.834c1.363-0.168,2.686,0.218,3.727,1.071c0.748,0.613,1.278,1.409,1.547,2.303c0.791-0.648,1.785-1.007,2.842-1.007c2.458,0,4.457,1.962,4.457,4.373c0,0.034-0.001,0.068-0.002,0.103c1.765,0.555,3.004,2.188,3.004,4.037C87.004,58.235,85.065,60.136,82.682,60.136z M73.025,60.136h-0.36c-0.276,0-0.5-0.224-0.5-0.5s0.224-0.5,0.5-0.5h0.36c0.276,0,0.5,0.224,0.5,0.5S73.301,60.136,73.025,60.136z"/><path fill="#472b29" d="M80.975 54.334c-.018 0-.036-.002-.055-.006-.135-.03-.22-.164-.189-.299.036-.163.094-.324.169-.479.605-1.225 2.274-1.675 3.722-1.006.126.058.181.206.122.331-.058.125-.208.18-.331.122-1.207-.558-2.579-.207-3.063.773-.059.119-.103.242-.13.368C81.193 54.254 81.09 54.334 80.975 54.334zM75.816 60.136H74.71c-.276 0-.5-.224-.5-.5s.224-.5.5-.5h1.106c.276 0 .5.224.5.5S76.092 60.136 75.816 60.136z"/><path fill="#fff" d="M71.547 21.433h-10.03c-.276 0-.5-.224-.5-.5s.224-.5.5-.5h10.03c.276 0 .5.224.5.5S71.823 21.433 71.547 21.433zM74.427 21.433h-1.445c-.276 0-.5-.224-.5-.5s.224-.5.5-.5h1.445c.276 0 .5.224.5.5S74.704 21.433 74.427 21.433zM78.482 21.433h-2.546c-.276 0-.5-.224-.5-.5s.224-.5.5-.5h2.546c.276 0 .5.224.5.5S78.758 21.433 78.482 21.433zM76.457 17.704H66.84c-.276 0-.5-.224-.5-.5s.224-.5.5-.5h9.616c.276 0 .5.224.5.5S76.733 17.704 76.457 17.704zM65.108 17.704h-.58c-.276 0-.5-.224-.5-.5s.224-.5.5-.5h.58c.276 0 .5.224.5.5S65.384 17.704 65.108 17.704zM62.732 17.704h-1.457c-.276 0-.5-.224-.5-.5s.224-.5.5-.5h1.457c.276 0 .5.224.5.5S63.008 17.704 62.732 17.704zM73.893 19.568h-5.027c-.276 0-.5-.224-.5-.5s.224-.5.5-.5h5.027c.276 0 .5.224.5.5S74.17 19.568 73.893 19.568z"/><path fill="#fff" d="M73.893 17.704h-1.257c-.276 0-.5-.224-.5-.5s.224-.5.5-.5h1.257c.276 0 .5.224.5.5S74.17 17.704 73.893 17.704zM67.411 19.568h-1.759c-.276 0-.5-.224-.5-.5s.224-.5.5-.5h1.759c.276 0 .5.224.5.5S67.687 19.568 67.411 19.568z"/><path fill="#472b29" d="M54.362,75.924c-0.276,0-0.5-0.224-0.5-0.5V32.699c0-0.276,0.224-0.5,0.5-0.5s0.5,0.224,0.5,0.5v42.726C54.862,75.701,54.638,75.924,54.362,75.924z"/><path fill="#8889b9" d="M62.519,66.586H46.906c-2.007,0-3.649-1.642-3.649-3.649V29.007c0-2.007,1.642-3.649,3.649-3.649h15.613c2.007,0,3.649,1.642,3.649,3.649v33.929C66.168,64.943,64.526,66.586,62.519,66.586z"/><path fill="#472b29" d="M62.519,67.286H46.906c-2.398,0-4.35-1.951-4.35-4.35V29.007c0-2.398,1.951-4.35,4.35-4.35h15.613c2.398,0,4.35,1.951,4.35,4.35v33.929C66.869,65.335,64.918,67.286,62.519,67.286z M46.906,26.058c-1.626,0-2.949,1.323-2.949,2.949v33.929c0,1.626,1.323,2.949,2.949,2.949h15.613c1.626,0,2.949-1.323,2.949-2.949V29.007c0-1.626-1.323-2.949-2.949-2.949H46.906z"/><path fill="#616493" d="M50.357 29.114L63.424 29.114 63.424 31.998 46.001 31.998 46.001 29.114 47.128 29.114"/><path fill="#472b29" d="M63.424,32.373H46.002c-0.207,0-0.375-0.168-0.375-0.375v-2.884c0-0.207,0.168-0.375,0.375-0.375h1.126c0.207,0,0.375,0.168,0.375,0.375s-0.168,0.375-0.375,0.375h-0.751v2.134h16.673v-2.134H50.357c-0.207,0-0.375-0.168-0.375-0.375s0.168-0.375,0.375-0.375h13.067c0.207,0,0.375,0.168,0.375,0.375v2.884C63.799,32.205,63.632,32.373,63.424,32.373z"/><path fill="#fbcd59" d="M54.713 61.415A1.051 1.051 0 1 0 54.713 63.517A1.051 1.051 0 1 0 54.713 61.415Z"/><path fill="#472b29" d="M54.713,63.867c-0.772,0-1.4-0.628-1.4-1.4s0.628-1.4,1.4-1.4s1.4,0.628,1.4,1.4S55.485,63.867,54.713,63.867z M54.713,61.765c-0.387,0-0.701,0.314-0.701,0.701s0.314,0.701,0.701,0.701s0.701-0.314,0.701-0.701S55.099,61.765,54.713,61.765z"/><path fill="#fbcd59" d="M54.713 54.334999999999994A2.84 2.84 0 1 0 54.713 60.015A2.84 2.84 0 1 0 54.713 54.334999999999994Z"/><path fill="#472b29" d="M54.713,60.365c-1.76,0-3.19-1.431-3.19-3.19c0-1.759,1.431-3.189,3.19-3.189s3.19,1.431,3.19,3.189C57.903,58.934,56.472,60.365,54.713,60.365z M54.713,54.684c-1.373,0-2.491,1.117-2.491,2.49s1.118,2.491,2.491,2.491s2.491-1.118,2.491-2.491S56.086,54.684,54.713,54.684z"/><path fill="#616493" d="M48.604 34.717L63.424 34.717 63.424 37.601 46.001 37.601 46.001 34.717 47.127 34.717"/><path fill="#472b29" d="M63.423,37.975H46.001c-0.207,0-0.375-0.168-0.375-0.375v-2.884c0-0.207,0.168-0.375,0.375-0.375h1.127c0.207,0,0.375,0.168,0.375,0.375s-0.168,0.375-0.375,0.375h-0.752v2.134h16.673v-2.134H48.604c-0.207,0-0.375-0.168-0.375-0.375s0.168-0.375,0.375-0.375h14.819c0.207,0,0.375,0.168,0.375,0.375V37.6C63.798,37.807,63.631,37.975,63.423,37.975z"/><path fill="#616493" d="M57.097 43.204L46 43.204 46 40.32 63.423 40.32 63.423 43.204 62.297 43.204"/><path fill="#472b29" d="M63.423,43.579h-1.127c-0.207,0-0.375-0.168-0.375-0.375s0.168-0.375,0.375-0.375h0.752v-2.134H46.376v2.134h10.721c0.207,0,0.375,0.168,0.375,0.375s-0.168,0.375-0.375,0.375H46.001c-0.207,0-0.375-0.168-0.375-0.375V40.32c0-0.207,0.168-0.375,0.375-0.375h17.423c0.207,0,0.375,0.168,0.375,0.375v2.884C63.798,43.411,63.631,43.579,63.423,43.579z"/><path fill="#472b29" d="M60.817 43.579H58.76c-.207 0-.375-.168-.375-.375s.168-.375.375-.375h2.057c.207 0 .375.168.375.375S61.024 43.579 60.817 43.579zM67.242 75.924H42.805c-.276 0-.5-.224-.5-.5s.224-.5.5-.5h24.437c1.472 0 2.669-1.197 2.669-2.669V59.636c0-.276.224-.5.5-.5s.5.224.5.5v12.619C70.911 74.279 69.265 75.924 67.242 75.924z"/><path fill="#616493" d="M54.362 73.323A1.751 1.751 0 1 0 54.362 76.825A1.751 1.751 0 1 0 54.362 73.323Z"/><path fill="#472b29" d="M54.362,77.2c-1.172,0-2.126-0.954-2.126-2.126s0.954-2.126,2.126-2.126c1.173,0,2.127,0.954,2.127,2.126S55.535,77.2,54.362,77.2z M54.362,73.698c-0.759,0-1.376,0.617-1.376,1.376s0.617,1.376,1.376,1.376s1.377-0.617,1.377-1.376S55.121,73.698,54.362,73.698z"/><path fill="#f9e7e5" d="M53.18,66.858v1.795c0,0.65,0.532,1.182,1.182,1.182c0.65,0,1.182-0.532,1.182-1.182v-1.795H53.18z"/><path fill="#472b29" d="M54.362 70.336c-.928 0-1.682-.755-1.682-1.683v-1.795c0-.276.224-.5.5-.5h2.364c.276 0 .5.224.5.5v1.795C56.045 69.581 55.29 70.336 54.362 70.336zM53.68 67.358v1.295c0 .376.306.683.682.683s.683-.307.683-.683v-1.295H53.68zM38.498 65.017c-.276 0-.5-.224-.5-.5V47.709c0-2.452-1.995-4.446-4.447-4.446h-2.52c-.276 0-.5-.224-.5-.5s.224-.5.5-.5h2.52c3.004 0 5.447 2.443 5.447 5.446v16.809C38.998 64.794 38.774 65.017 38.498 65.017z"/><path fill="#472b29" d="M28.919,45.496c-1.264,0-2.291-1.028-2.291-2.292s1.027-2.292,2.291-2.292s2.292,1.028,2.292,2.292S30.182,45.496,28.919,45.496z M28.919,41.912c-0.712,0-1.291,0.579-1.291,1.292s0.579,1.292,1.291,1.292c0.713,0,1.292-0.579,1.292-1.292S29.631,41.912,28.919,41.912z"/><path fill="#fdfcef" d="M34.331,77.6c0,0,11.691,0,11.762,0c2.7,0,4.888-2.189,4.888-4.889c0-2.355-1.666-4.321-3.884-4.784c0.026-0.206,0.043-0.415,0.043-0.628c0-2.796-2.267-5.063-5.063-5.063c-1.651,0-3.113,0.794-4.037,2.017c-0.236-3.113-3.017-5.514-6.27-5.116c-2.379,0.291-4.346,2.13-4.784,4.486c-0.14,0.756-0.126,1.489,0.014,2.177c-0.638-0.687-1.546-1.119-2.557-1.119c-1.85,0-3.361,1.441-3.48,3.261c-0.84-0.186-1.754-0.174-2.717,0.188c-1.84,0.691-3.15,2.423-3.227,4.387c-0.109,2.789,2.12,5.085,4.885,5.085c0.21,0,0.948,0,1.118,0h10.151"/><path fill="#472b29" d="M46.092,78.1H34.331c-0.276,0-0.5-0.224-0.5-0.5s0.224-0.5,0.5-0.5h11.762c2.42,0,4.389-1.969,4.389-4.389c0-2.066-1.466-3.872-3.486-4.295c-0.254-0.053-0.426-0.292-0.394-0.551c0.022-0.186,0.039-0.374,0.039-0.566c0-2.517-2.047-4.563-4.563-4.563c-1.438,0-2.765,0.663-3.639,1.818c-0.125,0.165-0.342,0.235-0.539,0.178c-0.2-0.059-0.342-0.234-0.358-0.441c-0.104-1.377-0.778-2.671-1.85-3.549c-1.082-0.888-2.458-1.28-3.86-1.109c-2.165,0.266-3.955,1.943-4.353,4.081c-0.124,0.667-0.12,1.335,0.013,1.986c0.044,0.22-0.062,0.442-0.262,0.544c-0.196,0.105-0.442,0.061-0.595-0.104c-0.575-0.618-1.353-0.959-2.19-0.959c-1.568,0-2.878,1.227-2.98,2.793c-0.01,0.146-0.082,0.28-0.199,0.367c-0.117,0.088-0.269,0.119-0.407,0.089c-0.844-0.185-1.64-0.132-2.434,0.167c-1.669,0.628-2.836,2.211-2.903,3.939c-0.047,1.207,0.387,2.35,1.222,3.218s1.959,1.347,3.163,1.347h11.27c0.276,0,0.5,0.224,0.5,0.5s-0.224,0.5-0.5,0.5h-11.27c-1.479,0-2.858-0.587-3.884-1.653c-1.025-1.065-1.559-2.469-1.501-3.95c0.084-2.126,1.511-4.069,3.552-4.836c0.8-0.3,1.627-0.398,2.468-0.299c0.377-1.822,1.996-3.182,3.904-3.182c0.685,0,1.354,0.18,1.944,0.51c-0.001-0.386,0.035-0.772,0.107-1.159c0.476-2.562,2.619-4.573,5.214-4.891c1.675-0.202,3.32,0.266,4.615,1.328c1.004,0.823,1.717,1.951,2.038,3.193c1.013-0.916,2.319-1.426,3.714-1.426c3.067,0,5.563,2.496,5.563,5.563c0,0.083-0.002,0.166-0.007,0.248c2.254,0.674,3.848,2.777,3.848,5.164C51.481,75.683,49.064,78.1,46.092,78.1z"/><path fill="#fdfcef" d="M31.497,66.831c-1.808-0.119-3.365,1.13-3.476,2.789c-0.014,0.206-0.005,0.409,0.025,0.606c-0.349-0.394-0.865-0.661-1.458-0.7c-1.085-0.071-2.022,0.645-2.158,1.62c-0.197-0.054-0.403-0.09-0.616-0.104c-1.582-0.104-2.944,0.989-3.042,2.441"/><path fill="#472b29" d="M20.773,73.733c-0.006,0-0.011,0-0.017-0.001c-0.138-0.009-0.242-0.128-0.232-0.266c0.105-1.587,1.561-2.786,3.307-2.674c0.137,0.009,0.273,0.026,0.409,0.053c0.273-0.968,1.252-1.652,2.365-1.567c0.426,0.027,0.824,0.16,1.163,0.382c0.001-0.019,0.002-0.037,0.004-0.056c0.12-1.794,1.801-3.15,3.742-3.021c0.138,0.009,0.242,0.128,0.232,0.266c-0.008,0.137-0.105,0.259-0.266,0.232c-1.678-0.12-3.108,1.036-3.211,2.557c-0.012,0.187-0.004,0.372,0.023,0.552c0.017,0.109-0.041,0.218-0.141,0.265c-0.102,0.045-0.221,0.021-0.294-0.061c-0.321-0.364-0.778-0.583-1.287-0.617c-0.956-0.038-1.775,0.556-1.893,1.404c-0.011,0.071-0.051,0.135-0.11,0.175s-0.135,0.051-0.203,0.032c-0.187-0.051-0.378-0.083-0.568-0.097c-1.443-0.088-2.687,0.896-2.775,2.209C21.013,73.631,20.904,73.733,20.773,73.733z"/><path fill="#fdfcef" d="M48.072,68.5c-1.699-0.801-3.664-0.234-4.389,1.267c-0.09,0.186-0.157,0.379-0.201,0.574"/><path fill="#472b29" d="M43.482,70.59c-0.019,0-0.037-0.002-0.056-0.007c-0.135-0.03-0.219-0.165-0.188-0.299c0.049-0.216,0.123-0.427,0.219-0.626c0.783-1.622,2.9-2.242,4.721-1.385c0.125,0.06,0.179,0.208,0.12,0.333c-0.06,0.126-0.21,0.176-0.333,0.12c-1.575-0.743-3.394-0.226-4.057,1.148c-0.08,0.166-0.142,0.342-0.184,0.521C43.699,70.512,43.596,70.59,43.482,70.59z"/></svg>