<svg width="446" height="200" viewBox="0 0 446 200" fill="none" xmlns="http://www.w3.org/2000/svg">
<path fill-rule="evenodd" clip-rule="evenodd" d="M100 0C44.7715 0 0 44.7715 0 100C0 155.228 44.7715 200 100 200H166V0H100ZM95 26C54.1309 26 21 59.1309 21 100C21 140.869 54.1309 174 95 174H145V76C145 48.3858 122.614 26 95 26Z" fill="url(#paint0_linear_206_282)"/>
<path d="M166 0V200C177.598 200 187 190.598 187 179V71C187 43.3858 209.386 21 237 21H311C322.598 21 332 11.598 332 0H166Z" fill="url(#paint1_linear_206_282)"/>
<path d="M225.195 62.96H237.57C241.08 62.96 244.095 63.59 246.615 64.85C249.135 66.11 251.055 67.94 252.375 70.34C253.725 72.74 254.4 75.605 254.4 78.935C254.4 82.295 253.74 85.175 252.42 87.575C251.1 89.975 249.18 91.82 246.66 93.11C244.14 94.37 241.11 95 237.57 95H225.195V62.96ZM237.12 89.33C243.96 89.33 247.38 85.865 247.38 78.935C247.38 72.065 243.96 68.63 237.12 68.63H232.215V89.33H237.12Z" fill="url(#paint2_linear_206_282)"/>
<path d="M270.352 95.36C267.922 95.36 265.792 94.88 263.962 93.92C262.162 92.96 260.767 91.58 259.777 89.78C258.817 87.98 258.337 85.88 258.337 83.48C258.337 81.08 258.817 78.98 259.777 77.18C260.767 75.38 262.162 74 263.962 73.04C265.792 72.08 267.922 71.6 270.352 71.6C272.752 71.6 274.852 72.08 276.652 73.04C278.452 74 279.832 75.38 280.792 77.18C281.782 78.98 282.277 81.08 282.277 83.48C282.277 85.88 281.782 87.98 280.792 89.78C279.832 91.58 278.452 92.96 276.652 93.92C274.852 94.88 272.752 95.36 270.352 95.36ZM270.352 90.185C272.032 90.185 273.307 89.63 274.177 88.52C275.077 87.41 275.527 85.73 275.527 83.48C275.527 81.26 275.077 79.595 274.177 78.485C273.307 77.345 272.032 76.775 270.352 76.775C268.642 76.775 267.337 77.345 266.437 78.485C265.537 79.595 265.087 81.26 265.087 83.48C265.087 87.95 266.842 90.185 270.352 90.185Z" fill="url(#paint3_linear_206_282)"/>
<path d="M323.486 72.185L314.261 95H308.546L303.371 81.77L298.421 95H292.661L283.436 72.185H290.366L295.856 86.9L301.301 72.185H305.936L311.426 87.035L316.916 72.185H323.486Z" fill="url(#paint4_linear_206_282)"/>
<path d="M340.344 71.6C345.744 71.6 348.444 74.795 348.444 81.185V95H341.649V81.5C341.649 79.91 341.349 78.755 340.749 78.035C340.179 77.285 339.264 76.91 338.004 76.91C336.504 76.91 335.304 77.39 334.404 78.35C333.504 79.31 333.054 80.6 333.054 82.22V95H326.259V78.71C326.259 76.28 326.139 74.105 325.899 72.185H332.289L332.739 75.785C333.549 74.435 334.599 73.4 335.889 72.68C337.209 71.96 338.694 71.6 340.344 71.6Z" fill="url(#paint5_linear_206_282)"/>
<path d="M362.406 77.27V86.135C362.406 87.395 362.736 88.325 363.396 88.925C364.056 89.495 364.911 89.78 365.961 89.78C366.621 89.78 367.371 89.675 368.211 89.465V94.73C367.131 95.15 365.826 95.36 364.296 95.36C361.476 95.36 359.316 94.565 357.816 92.975C356.346 91.385 355.611 89.15 355.611 86.27V77.27H351.291V72.185H355.611V66.83L362.406 64.625V72.185H368.211V77.27H362.406Z" fill="url(#paint6_linear_206_282)"/>
<path d="M371.698 72.185H378.493V95H371.698V72.185ZM378.718 61.475V67.865H371.473V61.475H378.718Z" fill="url(#paint7_linear_206_282)"/>
<path d="M411.947 71.6C414.557 71.6 416.492 72.395 417.752 73.985C419.042 75.545 419.687 77.945 419.687 81.185V95H412.892V81.41C412.892 79.82 412.637 78.68 412.127 77.99C411.617 77.27 410.777 76.91 409.607 76.91C408.227 76.91 407.162 77.39 406.412 78.35C405.662 79.31 405.287 80.66 405.287 82.4V95H398.492V81.41C398.492 79.85 398.222 78.71 397.682 77.99C397.172 77.27 396.347 76.91 395.207 76.91C393.827 76.91 392.747 77.39 391.967 78.35C391.217 79.31 390.842 80.66 390.842 82.4V95H384.047V78.71C384.047 76.28 383.927 74.105 383.687 72.185H390.077L390.482 75.605C391.172 74.315 392.132 73.325 393.362 72.635C394.622 71.945 396.062 71.6 397.682 71.6C401.072 71.6 403.322 73.01 404.432 75.83C405.182 74.54 406.217 73.52 407.537 72.77C408.887 71.99 410.357 71.6 411.947 71.6Z" fill="url(#paint8_linear_206_282)"/>
<path d="M445.523 84.155H430.493C430.613 86.285 431.168 87.845 432.158 88.835C433.148 89.795 434.618 90.275 436.568 90.275C437.738 90.275 438.908 90.08 440.078 89.69C441.248 89.3 442.328 88.73 443.318 87.98L445.118 92.57C444.038 93.44 442.688 94.13 441.068 94.64C439.478 95.12 437.873 95.36 436.253 95.36C432.413 95.36 429.398 94.31 427.208 92.21C425.018 90.08 423.923 87.185 423.923 83.525C423.923 81.215 424.388 79.16 425.318 77.36C426.278 75.53 427.613 74.12 429.323 73.13C431.033 72.11 432.968 71.6 435.128 71.6C438.338 71.6 440.873 72.65 442.733 74.75C444.593 76.82 445.523 79.625 445.523 83.165V84.155ZM435.308 76.37C434.018 76.37 432.968 76.745 432.158 77.495C431.378 78.245 430.868 79.34 430.628 80.78H439.673C439.313 77.84 437.858 76.37 435.308 76.37Z" fill="url(#paint9_linear_206_282)"/>
<path d="M246.615 143.89H231.63L228.57 151H221.505L236.22 118.96H241.89L256.605 151H249.675L246.615 143.89ZM244.32 138.535L239.145 126.52L233.97 138.535H244.32Z" fill="url(#paint10_linear_206_282)"/>
<path d="M258.891 117.88H265.686V151H258.891V117.88Z" fill="url(#paint11_linear_206_282)"/>
<path d="M291.714 140.155H276.684C276.804 142.285 277.359 143.845 278.349 144.835C279.339 145.795 280.809 146.275 282.759 146.275C283.929 146.275 285.099 146.08 286.269 145.69C287.439 145.3 288.519 144.73 289.509 143.98L291.309 148.57C290.229 149.44 288.879 150.13 287.259 150.64C285.669 151.12 284.064 151.36 282.444 151.36C278.604 151.36 275.589 150.31 273.399 148.21C271.209 146.08 270.114 143.185 270.114 139.525C270.114 137.215 270.579 135.16 271.509 133.36C272.469 131.53 273.804 130.12 275.514 129.13C277.224 128.11 279.159 127.6 281.319 127.6C284.529 127.6 287.064 128.65 288.924 130.75C290.784 132.82 291.714 135.625 291.714 139.165V140.155ZM281.499 132.37C280.209 132.37 279.159 132.745 278.349 133.495C277.569 134.245 277.059 135.34 276.819 136.78H285.864C285.504 133.84 284.049 132.37 281.499 132.37Z" fill="url(#paint12_linear_206_282)"/>
<path d="M309.255 127.645C310.215 127.645 311.025 127.795 311.685 128.095L311.64 134.305C310.53 133.795 309.42 133.54 308.31 133.54C306.51 133.54 305.13 134.035 304.17 135.025C303.24 135.985 302.775 137.335 302.775 139.075V151H295.98V134.71C295.98 132.28 295.86 130.105 295.62 128.185H302.01L302.46 132.1C303.03 130.66 303.915 129.565 305.115 128.815C306.345 128.035 307.725 127.645 309.255 127.645Z" fill="url(#paint13_linear_206_282)"/>
<path d="M325.229 133.27V142.135C325.229 143.395 325.559 144.325 326.219 144.925C326.879 145.495 327.734 145.78 328.784 145.78C329.444 145.78 330.194 145.675 331.034 145.465V150.73C329.954 151.15 328.649 151.36 327.119 151.36C324.299 151.36 322.139 150.565 320.639 148.975C319.169 147.385 318.434 145.15 318.434 142.27V133.27H314.114V128.185H318.434V122.83L325.229 120.625V128.185H331.034V133.27H325.229Z" fill="url(#paint14_linear_206_282)"/>
<defs>
<linearGradient id="paint0_linear_206_282" x1="304" y1="25.5" x2="244.5" y2="302.5" gradientUnits="userSpaceOnUse">
<stop stop-color="#A855F7"/>
<stop offset="1" stop-color="#493240"/>
</linearGradient>
<linearGradient id="paint1_linear_206_282" x1="304" y1="25.5" x2="244.5" y2="302.5" gradientUnits="userSpaceOnUse">
<stop stop-color="#A855F7"/>
<stop offset="1" stop-color="#493240"/>
</linearGradient>
<linearGradient id="paint2_linear_206_282" x1="304" y1="25.5" x2="244.5" y2="302.5" gradientUnits="userSpaceOnUse">
<stop stop-color="#A855F7"/>
<stop offset="1" stop-color="#493240"/>
</linearGradient>
<linearGradient id="paint3_linear_206_282" x1="304" y1="25.5" x2="244.5" y2="302.5" gradientUnits="userSpaceOnUse">
<stop stop-color="#A855F7"/>
<stop offset="1" stop-color="#493240"/>
</linearGradient>
<linearGradient id="paint4_linear_206_282" x1="304" y1="25.5" x2="244.5" y2="302.5" gradientUnits="userSpaceOnUse">
<stop stop-color="#A855F7"/>
<stop offset="1" stop-color="#493240"/>
</linearGradient>
<linearGradient id="paint5_linear_206_282" x1="304" y1="25.5" x2="244.5" y2="302.5" gradientUnits="userSpaceOnUse">
<stop stop-color="#A855F7"/>
<stop offset="1" stop-color="#493240"/>
</linearGradient>
<linearGradient id="paint6_linear_206_282" x1="304" y1="25.5" x2="244.5" y2="302.5" gradientUnits="userSpaceOnUse">
<stop stop-color="#A855F7"/>
<stop offset="1" stop-color="#493240"/>
</linearGradient>
<linearGradient id="paint7_linear_206_282" x1="304" y1="25.5" x2="244.5" y2="302.5" gradientUnits="userSpaceOnUse">
<stop stop-color="#A855F7"/>
<stop offset="1" stop-color="#493240"/>
</linearGradient>
<linearGradient id="paint8_linear_206_282" x1="304" y1="25.5" x2="244.5" y2="302.5" gradientUnits="userSpaceOnUse">
<stop stop-color="#A855F7"/>
<stop offset="1" stop-color="#493240"/>
</linearGradient>
<linearGradient id="paint9_linear_206_282" x1="304" y1="25.5" x2="244.5" y2="302.5" gradientUnits="userSpaceOnUse">
<stop stop-color="#A855F7"/>
<stop offset="1" stop-color="#493240"/>
</linearGradient>
<linearGradient id="paint10_linear_206_282" x1="304" y1="25.5" x2="244.5" y2="302.5" gradientUnits="userSpaceOnUse">
<stop stop-color="#A855F7"/>
<stop offset="1" stop-color="#493240"/>
</linearGradient>
<linearGradient id="paint11_linear_206_282" x1="304" y1="25.5" x2="244.5" y2="302.5" gradientUnits="userSpaceOnUse">
<stop stop-color="#A855F7"/>
<stop offset="1" stop-color="#493240"/>
</linearGradient>
<linearGradient id="paint12_linear_206_282" x1="304" y1="25.5" x2="244.5" y2="302.5" gradientUnits="userSpaceOnUse">
<stop stop-color="#A855F7"/>
<stop offset="1" stop-color="#493240"/>
</linearGradient>
<linearGradient id="paint13_linear_206_282" x1="304" y1="25.5" x2="244.5" y2="302.5" gradientUnits="userSpaceOnUse">
<stop stop-color="#A855F7"/>
<stop offset="1" stop-color="#493240"/>
</linearGradient>
<linearGradient id="paint14_linear_206_282" x1="304" y1="25.5" x2="244.5" y2="302.5" gradientUnits="userSpaceOnUse">
<stop stop-color="#A855F7"/>
<stop offset="1" stop-color="#493240"/>
</linearGradient>
</defs>
</svg>
