<svg width="90" height="90" viewBox="0 0 90 90" fill="none" xmlns="http://www.w3.org/2000/svg">
<path fill-rule="evenodd" clip-rule="evenodd" d="M45 0C20.1472 0 0 20.1472 0 45C0 69.8528 20.1472 90 45 90C69.8528 90 90 69.8528 90 45C90 20.1472 69.8528 0 45 0ZM60 35.5C60 43.5081 53.5081 50 45.5 50C37.4919 50 31 43.5081 31 35.5C31 27.4919 37.4919 21 45.5 21C53.5081 21 60 27.4919 60 35.5ZM45.5 50C55.7173 50 64 58.5066 64 69C64 69.3354 63.9915 69.6688 63.9748 70H27.0252C27.0085 69.6688 27 69.3354 27 69C27 58.5066 35.2827 50 45.5 50Z" fill="#A855F7"/>
</svg>
